<mxfile modified="2019-10-18T15:40:28.680Z" host="www.draw.io" agent="Mozilla/5.0 (Windows NT 10.0; Win64; x64) AppleWebKit/537.36 (KHTML, like Gecko) Chrome/77.0.3865.120 Safari/537.36" etag="Iey5k7v1-KACNhHIKJwA" version="12.1.3" type="github" pages="1">
  <diagram name="Page-1" id="97a40813-6b03-0c74-37c1-0168de264b11">
    <mxGraphModel dx="1290" dy="773" grid="1" gridSize="10" guides="1" tooltips="1" connect="1" arrows="1" fold="1" page="1" pageScale="1" pageWidth="1169" pageHeight="827" background="#ffffff" math="0" shadow="0">
      <root>
        <mxCell id="0"/>
        <mxCell id="1" parent="0"/>
        <mxCell id="mMxyZHGIuJ1RG7ACrcnE-52" value="" style="rounded=0;whiteSpace=wrap;html=1;strokeColor=#B3B3B3;fillColor=#E6E6E6;fontSize=16;fontColor=#0000CC;align=left;" vertex="1" parent="1">
          <mxGeometry x="40" y="222.5" width="434" height="125" as="geometry"/>
        </mxCell>
        <mxCell id="mMxyZHGIuJ1RG7ACrcnE-51" value="" style="rounded=0;whiteSpace=wrap;html=1;strokeColor=#B3B3B3;fillColor=#E6E6E6;fontSize=16;fontColor=#0000CC;align=left;" vertex="1" parent="1">
          <mxGeometry x="40" y="50" width="348" height="150" as="geometry"/>
        </mxCell>
        <mxCell id="mMxyZHGIuJ1RG7ACrcnE-50" value="" style="rounded=0;whiteSpace=wrap;html=1;strokeColor=#B3B3B3;fillColor=#E6E6E6;fontSize=16;fontColor=#0000CC;align=left;" vertex="1" parent="1">
          <mxGeometry x="40" y="670" width="346" height="100" as="geometry"/>
        </mxCell>
        <mxCell id="mMxyZHGIuJ1RG7ACrcnE-49" value="" style="rounded=0;whiteSpace=wrap;html=1;strokeColor=#B3B3B3;fillColor=#E6E6E6;fontSize=16;fontColor=#0000CC;align=left;" vertex="1" parent="1">
          <mxGeometry x="490" y="675" width="461" height="90" as="geometry"/>
        </mxCell>
        <mxCell id="mMxyZHGIuJ1RG7ACrcnE-3" value="HTML/CSS" style="rounded=0;whiteSpace=wrap;html=1;strokeColor=#B3B3B3;" vertex="1" parent="1">
          <mxGeometry x="40" y="580" width="120" height="30" as="geometry"/>
        </mxCell>
        <mxCell id="mMxyZHGIuJ1RG7ACrcnE-4" value="WebComponents" style="rounded=0;whiteSpace=wrap;html=1;strokeColor=#B3B3B3;" vertex="1" parent="1">
          <mxGeometry x="180" y="580" width="110" height="30" as="geometry"/>
        </mxCell>
        <mxCell id="mMxyZHGIuJ1RG7ACrcnE-5" value="JavaScript" style="rounded=0;whiteSpace=wrap;html=1;strokeColor=#B3B3B3;" vertex="1" parent="1">
          <mxGeometry x="398" y="580" width="110" height="30" as="geometry"/>
        </mxCell>
        <mxCell id="mMxyZHGIuJ1RG7ACrcnE-6" value="CodeMirror" style="rounded=0;whiteSpace=wrap;html=1;strokeColor=#B3B3B3;" vertex="1" parent="1">
          <mxGeometry x="511" y="715" width="70" height="30" as="geometry"/>
        </mxCell>
        <mxCell id="mMxyZHGIuJ1RG7ACrcnE-7" value="Base Technologies" style="text;html=1;strokeColor=none;fillColor=none;align=left;verticalAlign=middle;whiteSpace=wrap;rounded=0;fontSize=16;fontStyle=2;fontColor=#0000CC;" vertex="1" parent="1">
          <mxGeometry x="40" y="545" width="150" height="20" as="geometry"/>
        </mxCell>
        <mxCell id="mMxyZHGIuJ1RG7ACrcnE-8" value="Files / Resources" style="rounded=0;whiteSpace=wrap;html=1;strokeColor=#B3B3B3;" vertex="1" parent="1">
          <mxGeometry x="40" y="480" width="120" height="30" as="geometry"/>
        </mxCell>
        <mxCell id="mMxyZHGIuJ1RG7ACrcnE-9" value="Execution Environemnts" style="text;html=1;strokeColor=none;fillColor=none;align=left;verticalAlign=middle;whiteSpace=wrap;rounded=0;fontSize=16;fontStyle=2;fontColor=#0000CC;" vertex="1" parent="1">
          <mxGeometry x="58" y="65" width="220" height="20" as="geometry"/>
        </mxCell>
        <mxCell id="mMxyZHGIuJ1RG7ACrcnE-10" value="Browser" style="rounded=0;whiteSpace=wrap;html=1;strokeColor=#B3B3B3;" vertex="1" parent="1">
          <mxGeometry x="80.5" y="110" width="70" height="30" as="geometry"/>
        </mxCell>
        <mxCell id="mMxyZHGIuJ1RG7ACrcnE-11" value="Node" style="rounded=0;whiteSpace=wrap;html=1;strokeColor=#B3B3B3;" vertex="1" parent="1">
          <mxGeometry x="235.5" y="110" width="90" height="30" as="geometry"/>
        </mxCell>
        <mxCell id="mMxyZHGIuJ1RG7ACrcnE-13" value="git" style="shape=cylinder;whiteSpace=wrap;html=1;boundedLbl=1;backgroundOutline=1;strokeColor=#B3B3B3;fillColor=#E6E6E6;" vertex="1" parent="1">
          <mxGeometry x="295.5" y="125" width="50" height="50" as="geometry"/>
        </mxCell>
        <mxCell id="mMxyZHGIuJ1RG7ACrcnE-20" value="D3" style="rounded=0;whiteSpace=wrap;html=1;strokeColor=#B3B3B3;" vertex="1" parent="1">
          <mxGeometry x="591" y="715" width="70" height="30" as="geometry"/>
        </mxCell>
        <mxCell id="mMxyZHGIuJ1RG7ACrcnE-21" value="Markdown" style="rounded=0;whiteSpace=wrap;html=1;strokeColor=#B3B3B3;" vertex="1" parent="1">
          <mxGeometry x="309" y="580" width="70" height="30" as="geometry"/>
        </mxCell>
        <mxCell id="mMxyZHGIuJ1RG7ACrcnE-22" value="PDF" style="rounded=0;whiteSpace=wrap;html=1;strokeColor=#B3B3B3;" vertex="1" parent="1">
          <mxGeometry x="56" y="730" width="70" height="30" as="geometry"/>
        </mxCell>
        <mxCell id="mMxyZHGIuJ1RG7ACrcnE-23" value="PNG" style="rounded=0;whiteSpace=wrap;html=1;strokeColor=#B3B3B3;" vertex="1" parent="1">
          <mxGeometry x="136" y="730" width="70" height="30" as="geometry"/>
        </mxCell>
        <mxCell id="mMxyZHGIuJ1RG7ACrcnE-24" value="draw.io" style="rounded=0;whiteSpace=wrap;html=1;strokeColor=#B3B3B3;" vertex="1" parent="1">
          <mxGeometry x="306" y="730" width="70" height="30" as="geometry"/>
        </mxCell>
        <mxCell id="mMxyZHGIuJ1RG7ACrcnE-26" value="SVG" style="rounded=0;whiteSpace=wrap;html=1;strokeColor=#B3B3B3;" vertex="1" parent="1">
          <mxGeometry x="216" y="730" width="70" height="30" as="geometry"/>
        </mxCell>
        <mxCell id="mMxyZHGIuJ1RG7ACrcnE-27" value="Embedded Formats" style="text;html=1;strokeColor=none;fillColor=none;align=left;verticalAlign=middle;whiteSpace=wrap;rounded=0;fontSize=16;fontStyle=2;fontColor=#0000CC;" vertex="1" parent="1">
          <mxGeometry x="55" y="690" width="150" height="20" as="geometry"/>
        </mxCell>
        <mxCell id="mMxyZHGIuJ1RG7ACrcnE-28" value="Tools" style="text;html=1;strokeColor=none;fillColor=none;align=left;verticalAlign=middle;whiteSpace=wrap;rounded=0;fontSize=16;fontStyle=2;fontColor=#0000CC;" vertex="1" parent="1">
          <mxGeometry x="56" y="230" width="150" height="20" as="geometry"/>
        </mxCell>
        <mxCell id="mMxyZHGIuJ1RG7ACrcnE-29" value="Container" style="rounded=0;whiteSpace=wrap;html=1;strokeColor=#B3B3B3;" vertex="1" parent="1">
          <mxGeometry x="71" y="285" width="80" height="30" as="geometry"/>
        </mxCell>
        <mxCell id="mMxyZHGIuJ1RG7ACrcnE-30" value="External Libraries / Components" style="text;html=1;strokeColor=none;fillColor=none;align=left;verticalAlign=middle;whiteSpace=wrap;rounded=0;fontSize=16;fontColor=#0000CC;fontStyle=2;" vertex="1" parent="1">
          <mxGeometry x="511" y="680" width="300" height="20" as="geometry"/>
        </mxCell>
        <mxCell id="mMxyZHGIuJ1RG7ACrcnE-31" value="Babel" style="rounded=0;whiteSpace=wrap;html=1;strokeColor=#B3B3B3;" vertex="1" parent="1">
          <mxGeometry x="676" y="715" width="70" height="30" as="geometry"/>
        </mxCell>
        <mxCell id="mMxyZHGIuJ1RG7ACrcnE-32" value="PDF.JS" style="rounded=0;whiteSpace=wrap;html=1;strokeColor=#B3B3B3;" vertex="1" parent="1">
          <mxGeometry x="771" y="715" width="70" height="30" as="geometry"/>
        </mxCell>
        <mxCell id="mMxyZHGIuJ1RG7ACrcnE-33" value="xxx Parser" style="rounded=0;whiteSpace=wrap;html=1;strokeColor=#B3B3B3;" vertex="1" parent="1">
          <mxGeometry x="861" y="715" width="70" height="30" as="geometry"/>
        </mxCell>
        <mxCell id="mMxyZHGIuJ1RG7ACrcnE-34" value="Workspace" style="rounded=0;whiteSpace=wrap;html=1;strokeColor=#B3B3B3;" vertex="1" parent="1">
          <mxGeometry x="166" y="285" width="80" height="30" as="geometry"/>
        </mxCell>
        <mxCell id="mMxyZHGIuJ1RG7ACrcnE-35" value="Inspector" style="rounded=0;whiteSpace=wrap;html=1;strokeColor=#B3B3B3;" vertex="1" parent="1">
          <mxGeometry x="261" y="285" width="80" height="30" as="geometry"/>
        </mxCell>
        <mxCell id="mMxyZHGIuJ1RG7ACrcnE-36" value="Halo" style="rounded=0;whiteSpace=wrap;html=1;strokeColor=#B3B3B3;" vertex="1" parent="1">
          <mxGeometry x="356" y="285" width="80" height="30" as="geometry"/>
        </mxCell>
        <mxCell id="mMxyZHGIuJ1RG7ACrcnE-38" value="" style="shape=flexArrow;endArrow=classic;startArrow=classic;html=1;entryX=0;entryY=0.5;entryDx=0;entryDy=0;strokeColor=#E1D5E7;fillColor=#FFF4C3;" edge="1" parent="1" source="mMxyZHGIuJ1RG7ACrcnE-10" target="mMxyZHGIuJ1RG7ACrcnE-11">
          <mxGeometry width="50" height="50" relative="1" as="geometry">
            <mxPoint x="145.5" y="230" as="sourcePoint"/>
            <mxPoint x="195.5" y="180" as="targetPoint"/>
          </mxGeometry>
        </mxCell>
        <mxCell id="mMxyZHGIuJ1RG7ACrcnE-39" value="GET, PUT, OPTIONS, GIT" style="text;html=1;strokeColor=none;fillColor=none;align=center;verticalAlign=middle;whiteSpace=wrap;rounded=0;fontSize=9;" vertex="1" parent="1">
          <mxGeometry x="115.5" y="150" width="155" height="20" as="geometry"/>
        </mxCell>
      </root>
    </mxGraphModel>
  </diagram>
</mxfile>
